<?xml version="1.0" standalone="no"?>
<!DOCTYPE svg PUBLIC "-//W3C//DTD SVG 20010904//EN"
 "http://www.w3.org/TR/2001/REC-SVG-20010904/DTD/svg10.dtd">
<svg version="1.0" xmlns="http://www.w3.org/2000/svg"
 width="1024.000000pt" height="1024.000000pt" viewBox="0 0 1024.000000 1024.000000"
 preserveAspectRatio="xMidYMid meet">

<g transform="translate(0.000000,1024.000000) scale(0.100000,-0.100000)"
fill="#000000" stroke="none">
<path d="M2700 8207 c-169 -57 -309 -208 -354 -380 -10 -38 -16 -177 -21 -521
l-8 -468 -151 7 c-130 6 -158 4 -192 -10 -53 -22 -102 -70 -127 -125 -20 -44
-21 -63 -25 -856 -5 -936 -9 -888 81 -978 68 -68 99 -76 286 -76 l152 0 -2
-1143 -2 -1144 22 -66 c58 -172 195 -303 381 -363 51 -16 169 -18 1740 -26
l1685 -9 110 -41 c231 -85 416 -113 703 -105 208 5 284 16 472 68 351 97 617
252 856 501 340 353 514 861 474 1383 -28 363 -140 694 -338 990 -136 204
-210 271 -273 246 -70 -26 -132 -179 -164 -401 -13 -96 -30 -160 -66 -247 -7
-18 -16 -33 -19 -33 -3 0 -18 57 -33 126 -16 69 -64 250 -107 403 -99 351
-121 456 -127 611 -10 231 27 390 149 639 68 138 70 144 59 181 -14 46 -62 90
-100 90 -65 0 -292 -77 -578 -197 -10 -4 -13 60 -13 299 0 271 -2 313 -20 383
-11 42 -30 94 -42 114 -19 31 -194 217 -594 631 -55 58 -179 187 -275 288
-148 155 -184 187 -239 215 l-65 32 -1585 2 -1585 3 -65 -23z m3040 -254 c3
-2 4 -179 2 -391 -4 -432 1 -483 59 -601 40 -81 134 -176 211 -213 112 -55
141 -58 530 -58 l358 0 0 -298 0 -299 -87 -68 c-122 -98 -252 -223 -358 -347
-265 -309 -394 -611 -465 -1085 -17 -114 -35 -217 -39 -228 -7 -18 -11 -15
-30 22 -31 61 -44 178 -36 314 8 132 -2 167 -55 194 -63 33 -99 16 -213 -101
-228 -232 -408 -593 -473 -949 -25 -138 -26 -431 -1 -565 38 -200 134 -432
254 -615 46 -69 105 -139 192 -225 l126 -125 -1340 2 c-737 2 -1390 7 -1451
12 -128 10 -182 30 -239 86 -21 21 -48 62 -61 90 l-24 52 2 1119 3 1119 1300
-4 c1295 -3 1300 -3 1366 18 133 42 238 151 273 283 15 57 17 133 14 773 l-3
710 -33 67 c-48 98 -131 161 -244 188 -27 6 -530 10 -1368 10 l-1326 0 3 358
c5 552 5 549 35 608 40 77 114 135 193 152 39 8 2917 3 2925 -5z m352 -210
c467 -487 748 -782 748 -787 0 -3 -134 -6 -298 -6 -357 0 -377 4 -456 83 -33
33 -56 67 -64 93 -8 29 -12 141 -12 368 0 179 2 326 4 326 2 0 37 -35 78 -77z
m-1111 -1536 c0 -40 2 -80 4 -89 3 -17 -12 -18 -196 -18 l-199 0 0 -100 0
-100 175 0 175 0 0 -90 0 -90 -175 0 -175 0 0 -195 0 -195 -107 0 -108 0 2
477 c2 263 3 478 3 478 0 0 135 -1 300 -3 l300 -3 1 -72z m-1938 53 c134 -41
206 -131 215 -265 9 -141 -44 -237 -161 -295 -76 -37 -143 -50 -258 -50 l-89
0 0 -160 0 -160 -105 0 -105 0 0 143 c0 79 -3 293 -7 475 l-6 332 225 0 c198
0 234 -2 291 -20z m835 5 c123 -29 224 -100 274 -192 46 -85 60 -163 56 -309
-3 -128 -4 -133 -41 -207 -41 -84 -90 -132 -172 -172 -86 -43 -171 -55 -387
-55 l-198 0 0 288 c0 158 -3 371 -7 475 l-6 187 209 0 c149 0 227 -5 272 -15z
m3222 -1333 c-40 -83 -50 -212 -25 -352 23 -134 62 -239 155 -429 140 -285
171 -397 171 -631 0 -141 -7 -189 -41 -305 -37 -129 -31 -139 71 -109 129 39
234 113 336 239 44 54 153 242 153 263 0 7 4 11 9 8 8 -6 23 -100 36 -231 14
-136 -27 -360 -92 -515 -65 -152 -128 -246 -237 -356 -109 -109 -175 -158
-301 -222 -204 -104 -256 -117 -455 -117 -293 1 -449 56 -660 234 -234 198
-378 449 -426 741 -25 151 -11 370 28 444 10 19 12 18 30 -7 39 -54 102 -108
160 -136 255 -128 496 -5 623 319 33 84 51 176 75 380 24 200 47 298 101 422
69 161 154 282 252 359 27 22 50 39 52 39 2 0 -5 -17 -15 -38z"/>
<path d="M2750 5965 l0 -148 90 6 c96 7 130 19 169 61 33 36 39 110 12 153
-35 55 -64 67 -173 71 l-98 4 0 -147z"/>
<path d="M3653 6102 l-33 -3 0 -296 0 -296 103 5 c118 5 162 23 219 86 50 55
63 100 63 212 -1 79 -5 103 -24 143 -29 58 -67 98 -118 122 -38 19 -150 33
-210 27z"/>
</g>
</svg>
