<?xml version="1.0" encoding="UTF-8"?>
<svg xmlns="http://www.w3.org/2000/svg" xmlns:xlink="http://www.w3.org/1999/xlink" width="24px" height="24px" viewBox="0 0 24 24" version="1.1">
<g id="surface1">
<path style=" stroke:none;fill-rule:nonzero;fill:rgb(0%,0%,0%);fill-opacity:1;" d="M 13.199219 5.261719 L 15.554688 5.261719 C 15.832031 5.257812 16.058594 5.03125 16.0625 4.753906 C 16.058594 4.617188 16.007812 4.488281 15.921875 4.382812 L 12.601562 1.109375 C 12.519531 1.015625 12.398438 0.964844 12.277344 0.96875 C 11.996094 0.972656 11.773438 1.199219 11.769531 1.476562 L 11.769531 3.832031 C 11.773438 4.617188 12.410156 5.257812 13.199219 5.261719 Z M 13.199219 5.261719 "/>
<path style=" stroke:none;fill-rule:nonzero;fill:rgb(0%,0%,0%);fill-opacity:1;" d="M 23 14.976562 C 23.003906 14.617188 22.71875 14.316406 22.355469 14.308594 L 16.820312 14.308594 C 16.640625 14.304688 16.472656 14.375 16.347656 14.5 C 16.222656 14.625 16.152344 14.796875 16.152344 14.972656 L 16.152344 15.636719 C 16.152344 15.996094 16.4375 16.292969 16.800781 16.300781 L 19.632812 16.300781 L 14.558594 21.378906 C 14.304688 21.632812 14.304688 22.046875 14.558594 22.300781 L 15.019531 22.761719 C 15.152344 22.894531 15.332031 22.972656 15.523438 22.972656 C 15.683594 22.972656 15.839844 22.910156 15.957031 22.796875 L 21.03125 17.71875 L 21.03125 20.488281 C 21.03125 20.664062 21.101562 20.832031 21.222656 20.957031 C 21.347656 21.082031 21.515625 21.152344 21.691406 21.152344 L 22.398438 21.152344 C 22.574219 21.15625 22.746094 21.09375 22.871094 20.96875 C 23 20.847656 23.074219 20.683594 23.078125 20.507812 Z M 23 14.976562 "/>
<path style=" stroke:none;fill-rule:nonzero;fill:rgb(0%,0%,0%);fill-opacity:1;" d="M 8.46875 9.542969 L 7.796875 9.542969 L 7.796875 11.820312 L 8.46875 11.820312 C 8.796875 11.835938 9.09375 11.625 9.1875 11.3125 C 9.265625 11.101562 9.304688 10.875 9.300781 10.648438 C 9.316406 10.367188 9.257812 10.085938 9.132812 9.832031 C 8.980469 9.621094 8.726562 9.511719 8.46875 9.542969 Z M 8.46875 9.542969 "/>
<path style=" stroke:none;fill-rule:nonzero;fill:rgb(0%,0%,0%);fill-opacity:1;" d="M 5.210938 9.660156 C 5.097656 9.578125 4.960938 9.535156 4.824219 9.542969 L 4.152344 9.542969 L 4.152344 10.574219 L 4.828125 10.574219 C 4.96875 10.582031 5.109375 10.535156 5.214844 10.445312 C 5.316406 10.339844 5.367188 10.195312 5.355469 10.046875 C 5.367188 9.902344 5.3125 9.757812 5.203125 9.660156 Z M 5.210938 9.660156 "/>
<path style=" stroke:none;fill-rule:nonzero;fill:rgb(0%,0%,0%);fill-opacity:1;" d="M 15.339844 7.382812 L 11.722656 7.382812 C 10.539062 7.390625 9.570312 6.445312 9.554688 5.261719 L 9.554688 1.660156 C 9.5625 1.488281 9.503906 1.316406 9.386719 1.1875 C 9.273438 1.058594 9.109375 0.980469 8.933594 0.96875 L 3.136719 0.96875 C 1.957031 0.960938 0.988281 1.910156 0.96875 3.09375 L 0.96875 16.660156 C 0.96875 17.226562 1.195312 17.769531 1.59375 18.167969 C 1.996094 18.566406 2.535156 18.785156 3.101562 18.785156 L 11.355469 18.785156 L 11.355469 18.738281 C 11.34375 15.691406 13.21875 12.957031 16.0625 11.863281 L 16.0625 8.125 C 16.066406 7.71875 15.746094 7.390625 15.339844 7.382812 Z M 5.765625 10.914062 C 5.511719 11.101562 5.203125 11.191406 4.890625 11.175781 L 4.152344 11.175781 L 4.152344 12.425781 L 3.457031 12.425781 L 3.457031 8.941406 L 4.953125 8.941406 C 5.25 8.933594 5.539062 9.039062 5.765625 9.230469 C 5.980469 9.449219 6.09375 9.753906 6.070312 10.0625 C 6.097656 10.378906 5.984375 10.6875 5.765625 10.914062 Z M 9.761719 11.792969 C 9.535156 12.222656 9.078125 12.484375 8.59375 12.460938 L 7.089844 12.460938 L 7.089844 8.941406 L 8.59375 8.941406 C 8.777344 8.9375 8.957031 8.964844 9.132812 9.019531 C 9.375 9.097656 9.582031 9.25 9.726562 9.457031 C 9.84375 9.625 9.929688 9.816406 9.972656 10.019531 C 10.019531 10.214844 10.039062 10.414062 10.039062 10.617188 C 10.050781 11.023438 9.957031 11.429688 9.761719 11.792969 Z M 13.417969 9.558594 L 11.660156 9.558594 L 11.660156 10.363281 L 13.199219 10.363281 L 13.199219 10.964844 L 11.660156 10.964844 L 11.660156 12.425781 L 10.933594 12.425781 L 10.933594 8.945312 L 13.417969 8.945312 Z M 13.417969 9.558594 "/>
</g>
</svg>
